<svg xmlns="http://www.w3.org/2000/svg" xmlns:xlink="http://www.w3.org/1999/xlink" width="500" zoomAndPan="magnify" viewBox="0 0 375 374.999991" height="500" preserveAspectRatio="xMidYMid meet" version="1.0"><path fill="#00bf63" d="M 312.246094 223.914062 L 312.246094 282.910156 C 310.359375 285.363281 308.398438 287.761719 306.371094 290.097656 C 296.625 301.363281 285.191406 311.339844 272.269531 319.664062 C 270.117188 321.035156 267.96875 322.34375 265.898438 323.535156 C 263.632812 324.84375 261.816406 325.832031 260.183594 326.671875 L 258.878906 327.335938 L 258.425781 325.945312 C 257.417969 322.953125 256.355469 320.089844 255.25 317.492188 C 254.625 316.035156 253.972656 314.601562 253.320312 313.238281 C 251.605469 309.664062 249.617188 306.117188 247.375 302.625 C 246.796875 301.734375 246.242188 300.894531 245.675781 300.074219 C 244.394531 298.257812 243.0625 296.5 241.660156 294.785156 C 241.585938 294.695312 241.515625 294.601562 241.445312 294.511719 C 240.011719 292.785156 238.535156 291.109375 237.003906 289.503906 C 233.898438 286.242188 230.554688 283.25 227.003906 280.511719 C 219.515625 274.785156 211.941406 270.695312 203.941406 268.128906 L 203.941406 223.914062 C 203.941406 217.984375 204.890625 212.15625 206.761719 206.59375 C 210.082031 196.734375 216.152344 188.179688 224.042969 181.796875 C 229.40625 177.472656 235.585938 174.136719 242.34375 172.097656 L 247.390625 170.5625 L 242.609375 168.351562 C 229.644531 162.320312 221.261719 149.199219 221.261719 134.929688 C 221.261719 114.617188 237.789062 98.09375 258.101562 98.09375 C 278.398438 98.09375 294.925781 114.617188 294.925781 134.929688 C 294.925781 149.199219 286.554688 162.320312 273.59375 168.339844 L 268.808594 170.5625 L 273.847656 172.097656 C 282.3125 174.664062 290.097656 179.34375 296.386719 185.613281 C 306.613281 195.839844 312.246094 209.445312 312.246094 223.914062 " fill-opacity="1" fill-rule="nonzero"/><path fill="#ff5757" d="M 171.058594 223.914062 L 171.058594 260.199219 C 164.121094 258.625 157.101562 257.007812 150.066406 255.25 C 148.476562 254.867188 146.875 254.453125 145.285156 254.03125 C 141.511719 253.050781 137.753906 252.011719 134.007812 250.921875 C 131.070312 250.058594 128.136719 249.160156 125.226562 248.214844 C 123.058594 247.503906 121.113281 246.835938 119.285156 246.183594 C 115.011719 244.695312 111.085938 243.175781 107.59375 241.675781 C 105.792969 240.910156 103.878906 240.03125 101.808594 239.007812 C 98.089844 237.132812 95.070312 235.363281 92.601562 233.601562 L 92.289062 233.363281 L 91.890625 233.273438 C 91.453125 233.191406 91.011719 233.105469 90.53125 233.035156 L 90.472656 233.019531 L 90.21875 232.992188 C 89.382812 232.890625 88.742188 232.851562 88.191406 232.851562 L 88.035156 232.851562 C 85.777344 232.851562 84.105469 233.476562 83.039062 234.667969 C 81.792969 236.070312 81.308594 238.3125 81.621094 241.304688 L 81.636719 241.558594 C 82.089844 245.332031 83.59375 249.019531 84.046875 250.058594 L 84.121094 250.226562 L 84.230469 250.382812 C 84.757812 251.132812 86.246094 253.164062 88.785156 255.96875 C 90.1875 257.546875 91.621094 259.050781 93.070312 260.453125 C 96.175781 263.40625 99.339844 266.128906 102.746094 268.765625 C 104.644531 270.214844 106.671875 271.660156 108.929688 273.164062 L 109.46875 273.535156 C 109.992188 273.886719 110.53125 274.257812 111.070312 274.597656 C 117.964844 279.050781 125.425781 282.894531 133.339844 286.101562 L 133.371094 286.117188 L 133.339844 286.117188 C 115.527344 283.476562 87.539062 277.136719 68.644531 262.523438 C 67.804688 261.886719 66.984375 261.222656 66.1875 260.554688 C 65.054688 259.574219 63.890625 258.566406 62.742188 257.546875 L 62.742188 223.914062 C 62.742188 212.054688 66.5 200.804688 73.605469 191.371094 C 80.488281 182.238281 90.273438 175.402344 101.152344 172.097656 L 106.191406 170.5625 L 101.410156 168.339844 C 88.445312 162.320312 80.078125 149.199219 80.078125 134.929688 C 80.078125 114.617188 96.601562 98.09375 116.902344 98.09375 C 137.214844 98.09375 153.742188 114.617188 153.742188 134.929688 C 153.742188 149.199219 145.355469 162.320312 132.402344 168.339844 L 127.625 170.5625 L 132.660156 172.097656 C 139.3125 174.109375 145.554688 177.441406 150.960938 181.8125 C 152.433594 183.003906 153.851562 184.265625 155.199219 185.613281 C 161.085938 191.5 165.585938 198.75 168.238281 206.59375 C 170.109375 212.15625 171.058594 217.984375 171.058594 223.914062 " fill-opacity="1" fill-rule="nonzero"/><path fill="#ff914d" d="M 133.371094 286.117188 L 133.339844 286.117188 L 133.339844 286.101562 Z M 133.371094 286.117188 " fill-opacity="1" fill-rule="nonzero"/><path fill="#ff914d" d="M 241.660156 259.375 L 241.660156 294.785156 C 241.585938 294.695312 241.515625 294.601562 241.445312 294.511719 C 240.011719 292.785156 238.535156 291.109375 237.003906 289.503906 C 233.898438 286.242188 230.554688 283.25 227.003906 280.511719 C 219.515625 274.785156 211.941406 270.695312 203.941406 268.128906 C 203.273438 267.902344 202.609375 267.703125 201.925781 267.503906 C 201.628906 267.421875 201.328125 267.320312 201.035156 267.25 C 200.59375 267.121094 200.183594 267.007812 199.742188 266.90625 C 191.246094 264.753906 182.578125 262.796875 174.195312 260.910156 C 174.121094 260.878906 174.054688 260.867188 173.984375 260.851562 C 173.671875 260.796875 173.386719 260.722656 173.074219 260.65625 C 172.40625 260.496094 171.738281 260.355469 171.058594 260.199219 C 164.121094 258.625 157.101562 257.007812 150.066406 255.25 C 148.476562 254.867188 146.875 254.453125 145.285156 254.03125 C 141.511719 253.050781 137.753906 252.011719 134.007812 250.921875 C 136.832031 233.164062 148.417969 217.65625 165.101562 210.070312 L 168.195312 208.664062 L 165.46875 206.621094 C 157.34375 200.539062 152.207031 191.683594 150.960938 181.8125 C 150.761719 180.265625 150.660156 178.691406 150.660156 177.101562 C 150.660156 156.789062 167.1875 140.28125 187.5 140.28125 C 207.8125 140.28125 224.335938 156.789062 224.335938 177.101562 C 224.335938 178.691406 224.238281 180.25 224.042969 181.796875 C 222.808594 191.671875 217.65625 200.539062 209.53125 206.621094 L 206.804688 208.664062 L 209.914062 210.070312 C 215.828125 212.761719 221.175781 216.464844 225.800781 221.09375 C 236.027344 231.316406 241.660156 244.921875 241.660156 259.375 " fill-opacity="1" fill-rule="nonzero"/><path fill="#0097b2" d="M 375 187.5 C 375 240.496094 352.476562 290.410156 314.277344 325.519531 C 311.703125 327.890625 309.066406 330.175781 306.371094 332.402344 C 297.832031 339.40625 288.625 345.722656 278.808594 351.226562 C 267.632812 357.496094 255.847656 362.589844 243.675781 366.40625 C 242.507812 366.769531 241.347656 367.125 240.171875 367.46875 C 237.292969 368.316406 234.394531 369.082031 231.488281 369.777344 L 230.609375 369.992188 C 221.203125 372.234375 211.601562 373.707031 201.925781 374.464844 C 201.628906 374.472656 201.328125 374.503906 201.035156 374.515625 C 198.222656 374.71875 195.402344 374.859375 192.578125 374.941406 C 192.011719 374.957031 191.457031 374.972656 190.890625 374.972656 C 189.753906 375 188.621094 375 187.5 375 C 186.367188 375 185.230469 375 184.09375 374.972656 C 183.527344 374.972656 182.960938 374.957031 182.394531 374.941406 C 179.570312 374.859375 176.777344 374.71875 173.984375 374.515625 C 173.671875 374.503906 173.371094 374.472656 173.074219 374.464844 C 159.910156 373.453125 147.101562 371.085938 134.84375 367.484375 C 133.667969 367.125 132.492188 366.769531 131.339844 366.40625 C 108.191406 359.140625 86.96875 347.46875 68.644531 332.417969 C 65.933594 330.203125 63.292969 327.902344 60.742188 325.550781 C 23.417969 291.25 0 242.058594 0 187.5 C 0 185.941406 0.015625 184.609375 0.0429688 183.339844 L 3.671875 182.648438 C 4.101562 183.671875 4.398438 184.378906 4.46875 184.523438 C 6.398438 188.964844 17.53125 208.011719 36.425781 230.242188 C 44.882812 240.171875 52.898438 248.566406 60.742188 255.746094 C 61.40625 256.355469 62.074219 256.949219 62.742188 257.546875 C 63.890625 258.566406 65.054688 259.574219 66.1875 260.554688 C 66.984375 261.222656 67.804688 261.886719 68.644531 262.523438 C 87.539062 277.136719 115.527344 283.476562 133.339844 286.117188 L 133.371094 286.117188 L 133.339844 286.101562 C 125.425781 282.894531 117.964844 279.050781 111.070312 274.597656 C 110.53125 274.257812 109.992188 273.886719 109.46875 273.535156 L 108.929688 273.164062 C 106.671875 271.660156 104.644531 270.214844 102.746094 268.765625 C 99.339844 266.128906 96.175781 263.40625 93.070312 260.453125 C 91.621094 259.050781 90.1875 257.546875 88.785156 255.96875 C 86.246094 253.164062 84.757812 251.132812 84.230469 250.382812 L 84.121094 250.226562 L 84.046875 250.058594 C 83.59375 249.019531 82.089844 245.332031 81.636719 241.558594 L 81.621094 241.304688 C 81.308594 238.3125 81.792969 236.070312 83.039062 234.667969 C 84.105469 233.476562 85.777344 232.851562 88.035156 232.851562 L 88.191406 232.851562 C 88.742188 232.851562 89.382812 232.890625 90.21875 232.992188 L 90.472656 233.019531 L 90.53125 233.035156 C 91.011719 233.105469 91.453125 233.191406 91.890625 233.273438 L 92.289062 233.363281 L 92.601562 233.601562 C 95.070312 235.363281 98.089844 237.132812 101.808594 239.007812 C 103.878906 240.03125 105.792969 240.910156 107.59375 241.675781 C 111.085938 243.175781 115.011719 244.695312 119.285156 246.183594 C 121.113281 246.835938 123.058594 247.503906 125.226562 248.214844 C 128.136719 249.160156 131.070312 250.058594 134.007812 250.921875 C 137.753906 252.011719 141.511719 253.050781 145.285156 254.03125 C 146.875 254.453125 148.476562 254.867188 150.066406 255.25 C 157.101562 257.007812 164.121094 258.625 171.058594 260.199219 C 171.738281 260.355469 172.40625 260.496094 173.074219 260.65625 C 173.386719 260.722656 173.671875 260.796875 173.984375 260.851562 C 174.054688 260.867188 174.121094 260.878906 174.195312 260.910156 C 182.578125 262.796875 191.246094 264.753906 199.742188 266.90625 C 200.183594 267.007812 200.59375 267.121094 201.035156 267.25 C 201.328125 267.320312 201.628906 267.421875 201.925781 267.503906 C 202.609375 267.703125 203.273438 267.902344 203.941406 268.128906 C 211.941406 270.695312 219.515625 274.785156 227.003906 280.511719 C 230.554688 283.25 233.898438 286.242188 237.003906 289.503906 C 238.535156 291.109375 240.011719 292.785156 241.445312 294.511719 C 241.515625 294.601562 241.585938 294.695312 241.660156 294.785156 C 243.0625 296.5 244.394531 298.257812 245.675781 300.074219 C 246.242188 300.894531 246.796875 301.734375 247.375 302.625 C 249.617188 306.117188 251.605469 309.664062 253.320312 313.238281 C 253.972656 314.601562 254.625 316.035156 255.25 317.492188 C 256.355469 320.089844 257.417969 322.953125 258.425781 325.945312 L 258.878906 327.335938 L 260.183594 326.671875 C 261.816406 325.832031 263.632812 324.84375 265.898438 323.535156 C 267.96875 322.34375 270.117188 321.035156 272.269531 319.664062 C 285.191406 311.339844 296.625 301.363281 306.371094 290.097656 C 308.398438 287.761719 310.359375 285.363281 312.246094 282.910156 C 312.925781 282.015625 313.605469 281.121094 314.277344 280.214844 C 333.707031 253.71875 344.546875 221.445312 344.546875 187.5 C 344.546875 100.914062 274.101562 30.484375 187.5 30.484375 C 100.914062 30.484375 30.46875 100.914062 30.46875 187.5 C 30.46875 188.679688 30.484375 189.871094 30.511719 191.0625 L 30.683594 198.011719 L 27.023438 192.097656 C 26.753906 191.671875 26.484375 191.257812 26.203125 190.820312 L 25.988281 190.519531 C 25.234375 189.371094 24.355469 188.011719 23.492188 186.609375 C 22.683594 185.328125 21.886719 184.054688 21.109375 182.761719 L 20.625 181.996094 C 20.128906 181.199219 19.632812 180.367188 19.121094 179.554688 C 13.277344 170.023438 8.085938 160.957031 3.6875 152.574219 L 3.378906 151.980469 L 3.503906 151.328125 C 20.695312 63.652344 98.078125 0 187.5 0 C 290.894531 0 375 84.117188 375 187.5 " fill-opacity="1" fill-rule="nonzero"/></svg>